<?xml version="1.0" standalone="no"?>
<!DOCTYPE svg PUBLIC "-//W3C//DTD SVG 20010904//EN"
 "http://www.w3.org/TR/2001/REC-SVG-20010904/DTD/svg10.dtd">
<svg version="1.0" xmlns="http://www.w3.org/2000/svg"
 width="1279.000000pt" height="1280.000000pt" viewBox="0 0 1279.000000 1280.000000"
 preserveAspectRatio="xMidYMid meet">

<g transform="translate(0.000000,1280.000000) scale(0.100000,-0.100000)"
fill="#52c1ed" stroke="none">
<path d="M5950 12335 c-80 -7 -197 -20 -260 -29 -63 -8 -140 -18 -170 -21 -80
-8 -356 -61 -500 -96 -870 -211 -1666 -605 -2355 -1167 -142 -116 -334 -293
-480 -442 -127 -129 -167 -171 -253 -269 -13 -14 -34 -37 -46 -51 -34 -38
-209 -260 -236 -300 -13 -19 -27 -37 -31 -40 -17 -12 -263 -389 -336 -515
-212 -364 -412 -814 -537 -1210 -66 -210 -165 -615 -180 -735 -3 -25 -15 -96
-26 -159 -85 -478 -84 -1324 1 -1806 11 -66 25 -147 29 -180 4 -33 22 -121 40
-195 17 -74 36 -156 42 -183 l10 -47 3454 0 c3064 0 3454 -2 3454 -15 0 -13
-389 -15 -3445 -15 -2509 0 -3445 -3 -3445 -11 0 -48 107 -379 198 -614 105
-271 264 -599 416 -860 58 -98 286 -446 325 -495 11 -14 45 -59 76 -100 31
-41 66 -86 78 -100 12 -14 35 -43 52 -65 16 -22 36 -46 45 -55 8 -8 26 -29 38
-45 75 -95 391 -416 555 -562 169 -151 387 -326 522 -419 254 -174 380 -253
580 -362 456 -249 950 -440 1450 -560 141 -34 420 -88 500 -97 28 -3 104 -13
170 -21 241 -31 445 -44 691 -44 354 0 722 32 1034 90 85 16 169 32 186 34
121 21 520 130 657 180 37 13 67 23 67 21 0 -2 32 9 71 26 40 16 76 29 80 29
9 0 174 69 266 111 23 10 44 19 47 19 2 0 71 32 153 71 234 112 457 239 698
396 130 85 117 76 274 195 68 51 135 102 150 113 39 29 215 176 226 189 6 6
48 46 95 87 80 71 241 234 376 378 32 35 64 69 70 75 5 6 55 65 109 131 54 66
104 126 112 133 7 7 13 17 13 21 0 4 12 21 28 38 33 38 174 238 244 348 28 44
66 103 84 130 72 114 182 310 259 468 l83 167 -3454 0 c-3447 0 -3454 0 -3454
20 0 20 7 20 3463 20 l3463 0 23 53 c62 141 125 300 170 429 57 164 121 368
121 384 0 6 13 58 29 115 39 140 94 415 126 629 72 483 72 1221 1 1695 -15 94
-29 186 -32 205 -35 225 -144 636 -240 910 -69 198 -84 238 -179 460 -77 179
-284 568 -381 717 -19 28 -34 53 -34 56 0 12 -251 373 -292 420 -16 17 -28 35
-28 39 0 4 -8 15 -18 25 -10 10 -47 54 -83 98 -53 67 -228 267 -248 285 -3 3
-60 61 -126 129 -66 69 -145 147 -175 174 -30 27 -73 66 -95 86 -61 56 -222
191 -295 246 -36 28 -67 52 -70 56 -3 3 -45 34 -95 70 -49 35 -91 67 -93 72
-2 4 -7 7 -11 7 -4 0 -58 33 -119 74 -308 206 -643 383 -997 528 -194 80 -295
119 -315 123 -8 2 -49 15 -90 30 -118 42 -526 152 -632 170 -18 3 -103 19
-188 35 -160 29 -427 62 -654 80 -173 13 -627 11 -806 -5z m812 -1034 c4 -4 9
-29 11 -56 3 -47 30 -269 96 -783 15 -117 23 -216 19 -218 -5 -3 -71 -2 -148
2 l-139 7 -3 91 -3 91 -42 3 c-47 3 -43 11 -60 -123 -7 -54 -11 -60 -31 -59
-12 0 -76 1 -143 2 l-121 2 7 68 c3 37 19 144 35 237 16 94 45 271 65 395 19
124 40 255 46 292 l10 66 197 -5 c108 -3 200 -8 204 -12z m-787 -27 c86 -47
101 -88 120 -338 23 -311 29 -516 16 -563 -14 -52 -56 -88 -124 -108 -40 -11
-488 -49 -493 -42 -3 4 -54 897 -57 977 l-2 85 70 6 c39 3 151 6 250 5 164 -1
184 -3 220 -22z m1527 -20 c76 -31 133 -77 158 -128 21 -44 22 -57 18 -206 -2
-88 -6 -161 -9 -164 -4 -4 -178 15 -255 29 l-30 5 12 98 c17 123 17 175 2 190
-16 16 -43 15 -58 -3 -18 -22 -85 -584 -78 -660 3 -35 7 -40 29 -43 14 -2 31
3 37 10 6 7 18 63 27 123 9 60 18 111 20 114 3 2 65 -4 140 -14 l135 -17 -5
-32 c-7 -45 -26 -157 -31 -185 -8 -43 -43 -99 -81 -130 -138 -114 -433 -72
-518 73 -21 36 -28 63 -32 128 -9 141 58 652 93 707 38 59 89 97 164 122 43
15 210 3 262 -17z m-2281 -16 c1 -38 9 -95 35 -255 13 -84 28 -192 34 -240 5
-49 20 -160 34 -248 13 -88 27 -187 30 -221 l7 -61 -121 -18 c-67 -9 -122 -16
-124 -14 -4 7 -71 152 -132 286 -32 72 -60 131 -60 130 -1 -1 5 -40 12 -87 18
-106 47 -351 42 -355 -2 -2 -34 -6 -73 -9 -38 -3 -88 -9 -111 -12 -49 -7 -48
-10 -63 116 -14 109 -59 424 -102 714 -16 110 -26 202 -22 206 9 8 223 44 228
38 3 -3 21 -38 144 -288 40 -80 70 -136 67 -125 -12 48 -56 345 -58 388 l-3
49 40 4 c22 2 60 8 85 13 25 5 60 9 78 10 27 1 32 -3 33 -21z m3627 -44 c53
-14 99 -28 101 -30 9 -8 -231 -114 -261 -115 -29 -1 -26 -2 19 -13 72 -18 156
-75 187 -128 40 -69 49 -126 31 -211 -8 -39 -17 -88 -20 -107 -3 -19 -19 -87
-36 -150 -92 -352 -112 -395 -198 -447 -91 -54 -207 -54 -330 2 -71 33 -117
77 -147 140 -38 81 -31 146 47 445 16 63 31 124 33 135 18 98 70 222 109 263
47 49 79 63 170 71 69 6 77 8 50 15 -18 4 -33 11 -33 16 0 15 155 150 168 145
6 -2 56 -16 110 -31z m-760 -41 c71 -13 92 -20 92 -32 0 -9 -11 -77 -25 -151
-67 -350 -85 -448 -90 -490 -4 -25 -20 -110 -36 -189 -16 -79 -29 -154 -29
-168 0 -13 -6 -26 -13 -29 -7 -2 -69 7 -137 21 -69 14 -128 25 -131 25 -3 0 4
53 17 118 12 64 37 198 54 297 18 99 47 259 65 355 19 96 36 197 40 224 l7 48
46 -7 c26 -3 89 -13 140 -22z m-3679 -93 c12 -44 28 -113 36 -153 14 -71 27
-130 95 -411 42 -176 47 -241 25 -304 -27 -75 -85 -129 -174 -163 -84 -32
-238 -32 -304 0 -54 26 -98 79 -120 144 -9 23 -29 103 -46 177 -18 74 -48 203
-67 285 -20 83 -37 162 -39 176 -3 23 -28 125 -41 171 -4 14 12 20 93 38 54
12 116 25 138 30 42 10 55 2 55 -34 0 -11 14 -78 31 -150 17 -72 46 -198 65
-281 67 -293 77 -330 90 -362 14 -36 25 -40 47 -19 12 13 11 32 -13 148 -15
73 -37 171 -48 218 -61 249 -112 480 -112 501 0 7 65 25 122 34 18 3 56 12 83
19 28 8 53 15 56 15 4 1 17 -35 28 -79z m-759 -207 c32 -101 33 -123 2 -123
-37 0 -142 -42 -142 -57 0 -31 46 -163 56 -163 7 0 42 9 78 20 37 12 71 18 76
15 5 -3 12 -22 16 -43 4 -20 16 -61 27 -91 22 -59 19 -65 -40 -76 -18 -3 -49
-13 -69 -21 -27 -11 -34 -19 -29 -32 4 -9 18 -53 32 -97 13 -44 38 -122 54
-173 17 -52 29 -103 27 -115 -2 -18 -22 -27 -113 -55 -60 -19 -118 -38 -127
-43 -18 -9 -23 4 -103 271 -20 69 -48 157 -60 195 -13 39 -44 140 -70 225 -26
85 -58 189 -71 230 -13 41 -24 80 -24 86 0 7 35 21 78 33 42 12 140 41 217 66
77 24 143 44 147 45 4 0 21 -43 38 -97z m5660 -11 l105 -37 0 -232 c-1 -128 0
-231 1 -230 1 1 17 47 34 102 18 55 36 105 40 110 4 6 10 24 14 40 4 17 18 60
32 97 l25 67 42 -18 c23 -10 67 -25 97 -34 30 -9 61 -21 68 -25 14 -9 6 -36
-118 -392 -39 -113 -80 -230 -90 -260 -45 -132 -120 -343 -124 -347 -7 -7
-121 26 -181 52 l-58 26 6 77 c4 42 9 142 12 222 7 171 8 172 -79 -85 -32 -93
-59 -171 -61 -173 -3 -4 -57 14 -157 50 -63 22 -70 37 -47 95 20 49 100 276
113 323 8 25 24 70 36 100 12 30 30 82 41 115 10 33 36 112 59 175 22 63 48
139 57 168 9 28 19 52 22 51 3 0 53 -17 111 -37z m-2495 -2017 c157 -23 338
-95 465 -184 173 -122 263 -249 315 -444 48 -181 57 -269 62 -664 l6 -373
-462 -2 c-253 -1 -470 -2 -481 -2 -19 -1 -20 9 -23 454 -4 501 -9 545 -59 583
-37 27 -133 35 -174 14 -41 -22 -70 -56 -85 -102 -11 -32 -14 -264 -17 -1134
-1 -645 1 -1121 7 -1161 18 -132 55 -170 164 -170 68 0 117 30 134 83 24 73
33 208 33 519 l0 318 484 0 483 0 -4 -147 c-19 -718 -60 -882 -268 -1087 -155
-152 -355 -254 -575 -292 -127 -22 -338 -29 -460 -15 -58 7 -125 15 -150 18
-58 7 -251 68 -315 101 -149 75 -279 189 -345 302 -53 93 -102 248 -115 367
-3 26 -11 91 -18 143 -18 138 -17 1904 1 2046 21 169 34 218 80 309 148 296
439 483 822 529 48 6 446 -1 495 -9z m-3104 -719 l-2 -659 47 7 c26 3 89 6
140 6 l94 0 0 655 0 655 480 -2 481 -3 -1 -1834 c0 -1009 -1 -1836 -3 -1837
-1 -2 -217 -4 -480 -6 l-478 -3 3 773 3 772 -142 0 -143 0 0 -770 0 -770 -434
0 c-238 0 -454 -3 -480 -6 l-46 -7 0 1847 0 1846 481 -2 481 -3 -1 -659z
m6045 629 c2 -16 10 -82 19 -145 15 -109 27 -187 110 -745 20 -132 49 -330 65
-440 17 -110 45 -303 64 -430 19 -126 49 -324 66 -440 34 -227 75 -500 115
-770 14 -93 31 -206 37 -250 6 -44 23 -156 38 -250 14 -93 26 -171 25 -172 0
-1 -221 -3 -490 -4 l-490 -1 -17 223 c-10 123 -21 271 -25 329 l-8 105 -167 3
-167 2 -5 -32 c-9 -56 -37 -366 -45 -495 -4 -67 -9 -125 -12 -127 -2 -3 -226
-6 -497 -8 l-493 -3 6 75 c4 41 20 163 35 270 16 107 31 227 35 265 3 39 17
140 30 225 13 85 26 182 30 215 3 33 19 159 35 280 59 443 109 821 195 1475
20 151 49 370 65 485 16 116 32 242 35 280 4 39 9 80 12 93 l5 22 695 -2 696
-3 3 -30z m-5481 -3974 c87 -40 110 -90 110 -236 l0 -80 -97 -3 -98 -3 0 100
c0 103 -7 119 -45 105 -13 -5 -15 -39 -13 -248 l3 -241 25 0 c25 0 25 2 28 88
l3 87 93 0 c81 0 94 -2 98 -17 9 -36 -2 -163 -16 -191 -54 -104 -201 -139
-337 -81 -53 23 -77 58 -87 126 -9 64 -9 451 0 485 12 40 57 89 103 109 55 25
175 25 230 0z m1131 -6 c36 -18 57 -37 75 -67 23 -41 24 -52 27 -258 5 -294
-8 -344 -101 -392 -55 -28 -163 -30 -229 -5 -35 14 -55 30 -77 63 -38 58 -44
115 -40 362 l4 190 30 44 c43 61 101 88 190 88 56 0 82 -5 121 -25z m526 9
c25 -8 55 -25 66 -37 24 -27 42 -87 42 -144 l0 -43 -95 0 -95 0 0 50 c0 37 -4
52 -16 57 -21 8 -34 -14 -34 -59 0 -36 0 -36 76 -97 5 -4 21 -14 35 -21 45
-24 100 -72 115 -102 42 -82 37 -251 -9 -294 -34 -31 -55 -41 -124 -54 -53
-11 -72 -10 -131 5 -111 27 -141 73 -142 213 l0 63 93 -3 92 -3 -3 -33 c-2
-18 -1 -51 3 -72 5 -31 11 -40 26 -40 26 0 41 41 31 87 -8 39 -15 45 -143 136
-90 65 -103 91 -102 213 0 93 22 140 82 171 54 28 163 31 233 7z m783 -3 c50
-22 91 -69 105 -119 5 -20 10 -74 10 -119 l0 -83 -100 0 -99 0 -3 103 c-3 94
-5 102 -23 102 -29 0 -33 -29 -34 -241 -1 -226 3 -256 33 -252 19 3 21 10 24
91 l3 87 101 0 101 0 -5 -95 c-5 -83 -9 -100 -33 -135 -40 -58 -102 -84 -195
-85 -90 0 -164 31 -192 81 -28 48 -41 181 -36 368 4 150 7 176 26 213 37 72
97 101 207 102 48 0 83 -5 110 -18z m584 -14 c68 -45 81 -87 88 -275 6 -189
-7 -329 -37 -377 -42 -67 -155 -98 -261 -71 -72 19 -100 41 -129 101 -18 38
-20 61 -20 271 0 205 2 233 20 269 27 57 41 72 91 95 35 16 60 20 125 18 69
-3 87 -7 123 -31z m-4169 -107 c0 -123 1 -130 20 -130 18 0 20 8 22 128 l3
127 97 3 98 3 2 -371 3 -370 -102 0 -103 0 0 155 c0 148 -1 155 -20 155 -19 0
-20 -7 -20 -155 l0 -155 -100 0 -100 0 0 370 0 370 100 0 100 0 0 -130z m690
60 c0 -38 -1 -73 -2 -76 -2 -4 -30 -7 -63 -8 l-60 -1 -3 -67 -3 -68 61 0 60 0
0 -72 0 -73 -60 3 -61 4 3 -79 3 -78 67 -3 66 -3 4 -74 3 -75 -170 0 -170 0 2
367 c2 203 3 369 3 371 0 1 72 2 160 2 l160 0 0 -70z m880 -60 l0 -130 25 0
25 0 0 130 0 130 100 0 100 0 0 -370 0 -370 -100 0 -100 0 0 155 0 155 -25 0
-25 0 0 -155 0 -155 -100 0 -100 0 0 370 0 370 100 0 100 0 0 -130z m3007 15
c67 -213 61 -209 62 -37 l1 153 83 -3 82 -3 3 -360 c1 -198 1 -364 -2 -370 -2
-6 -37 -9 -88 -7 l-84 3 -32 102 c-17 56 -37 122 -44 147 -11 41 -12 42 -16
17 -2 -16 -2 -82 0 -147 l3 -119 -83 -3 c-46 -2 -86 -1 -88 1 -7 8 -4 727 3
735 4 4 43 5 86 4 l79 -3 35 -110z m906 93 c3 -13 12 -70 21 -128 8 -58 29
-195 45 -305 17 -110 32 -219 35 -242 l4 -43 -98 0 -98 0 -7 65 c-7 63 -8 65
-35 65 -27 0 -29 -2 -35 -65 l-7 -65 -105 0 -105 0 6 28 c3 15 14 95 25 177
11 83 32 233 46 335 14 102 25 188 25 193 0 4 63 7 139 7 136 0 139 0 144 -22z
m387 -273 l0 -295 54 0 54 0 4 -75 3 -75 -157 0 -158 0 0 363 c0 200 3 367 7
370 3 4 48 7 100 7 l93 0 0 -295z m463 273 c3 -13 11 -63 17 -113 6 -49 15
-112 20 -140 7 -44 8 -46 9 -15 1 19 10 91 19 160 l18 125 124 0 125 0 3 -367
2 -368 -85 0 -85 0 0 227 c0 228 -4 277 -13 148 -3 -39 -16 -139 -28 -223
l-23 -152 -63 0 -63 0 -1 33 c0 17 -13 106 -29 197 l-28 165 -1 -197 -1 -198
-85 0 -85 0 0 370 0 370 124 0 c120 0 124 -1 129 -22z m824 -173 c18 -104 35
-217 38 -250 5 -55 27 -200 41 -267 l6 -28 -106 0 -105 0 -3 63 c-3 62 -3 62
-35 65 l-33 3 0 -50 c0 -82 1 -81 -110 -81 l-97 0 4 53 c3 28 20 156 38 282
18 127 36 266 40 309 3 44 9 84 11 88 3 5 67 7 142 6 l137 -3 32 -190z m-8182
-1539 c42 -18 83 -79 87 -131 4 -57 -22 -54 -39 5 -18 63 -63 100 -123 100
-25 0 -52 -6 -60 -13 -91 -71 -45 -217 68 -217 43 0 46 10 12 45 -26 27 -29
34 -16 44 12 10 22 4 55 -31 22 -24 41 -49 41 -55 0 -20 -56 -43 -104 -43 -76
0 -146 76 -146 160 0 60 41 125 90 143 29 11 101 7 135 -7z m228 -229 c31 -29
57 -58 57 -64 0 -30 -26 -21 -70 22 l-48 47 -26 -28 -26 -29 46 -46 c43 -44
50 -69 20 -69 -8 0 -32 20 -54 44 l-40 44 -36 -37 -36 -37 45 -44 c49 -48 53
-58 29 -67 -11 -4 -34 12 -75 53 l-58 59 102 103 c56 56 104 102 107 102 4 0
32 -24 63 -53z m8234 17 c38 -14 102 -37 143 -51 88 -30 86 -29 71 -47 -10
-12 -19 -12 -62 2 l-50 16 -41 -41 -40 -41 17 -46 c16 -43 15 -76 -2 -76 -8 0
-24 38 -86 207 -30 80 -34 103 -21 103 2 0 34 -11 71 -26z m-8147 -241 l0
-137 69 75 c54 58 72 71 82 62 16 -16 3 -33 -106 -148 l-86 -90 4 145 4 145
-71 -76 c-65 -69 -96 -87 -96 -55 0 6 37 52 83 101 45 50 87 95 92 102 6 7 13
12 18 13 4 0 7 -62 7 -137z m8025 70 c130 -141 127 -138 109 -142 -17 -3 -181
14 -239 26 l-30 6 44 -49 c24 -27 57 -63 72 -80 25 -28 27 -33 13 -45 -17 -14
-12 -19 -128 110 -42 47 -76 90 -76 96 0 8 37 6 132 -7 72 -10 133 -16 134
-15 4 3 -34 47 -93 109 -32 33 -37 58 -11 58 5 0 38 -30 73 -67z m-228 -170
c28 -32 69 -78 91 -103 43 -47 50 -64 31 -76 -12 -7 -51 31 -124 121 -22 28
-48 58 -58 68 -18 18 -17 47 1 47 5 0 32 -26 59 -57z m-7526 0 c55 -45 69 -71
43 -80 -6 -2 -32 16 -59 39 l-48 42 -23 -29 c-29 -37 -30 -41 -1 -56 12 -7 35
-24 50 -39 22 -22 25 -29 14 -38 -10 -8 -25 -1 -62 29 l-50 39 -32 -36 -33
-37 45 -39 c25 -22 45 -46 45 -54 0 -27 -35 -13 -88 36 -40 35 -52 52 -45 63
8 15 75 97 103 126 8 9 26 31 38 49 13 17 28 32 34 32 6 0 37 -21 69 -47z
m7444 6 c4 -6 -3 -21 -15 -34 l-23 -24 49 -58 c27 -32 55 -64 62 -72 26 -27
44 -60 37 -71 -11 -19 -24 -11 -65 42 -23 28 -58 71 -79 95 l-38 43 -27 -21
c-24 -19 -27 -19 -33 -3 -5 13 4 27 33 50 21 18 46 40 54 48 17 19 36 21 45 5z
m-7303 -122 c60 -46 75 -80 54 -123 -17 -37 -49 -50 -96 -40 l-30 6 0 -75 c0
-41 -4 -75 -8 -75 -23 0 -32 30 -32 107 0 46 -3 83 -7 83 -5 0 -23 -21 -42
-45 -18 -25 -39 -45 -47 -45 -27 0 -25 23 3 53 16 18 56 67 88 110 32 42 61
77 66 77 4 0 27 -15 51 -33z m7239 -102 c95 -130 96 -129 -72 -91 -62 14 -114
24 -116 22 -3 -2 9 -19 24 -37 51 -60 92 -122 87 -131 -12 -19 -33 -4 -89 67
-87 111 -109 144 -101 152 3 4 53 -4 109 -17 177 -40 168 -45 97 49 -57 76
-68 106 -34 99 7 -2 50 -52 95 -113z m-291 -61 c0 -7 -22 -29 -50 -46 -27 -18
-50 -35 -50 -38 0 -3 10 -18 23 -33 l22 -29 53 37 c50 34 72 38 72 12 0 -7
-23 -27 -50 -46 -28 -19 -50 -37 -50 -40 0 -3 13 -21 29 -40 l28 -34 47 32
c43 30 76 35 76 13 0 -7 -85 -71 -127 -95 -7 -5 -35 28 -74 85 -34 51 -70 102
-80 114 -11 11 -19 24 -19 30 1 14 131 105 141 98 5 -3 9 -12 9 -20z m-6724
-21 c-4 -9 -12 -48 -18 -87 -26 -170 -33 -201 -51 -204 -15 -3 -16 3 -11 55
l6 58 -48 32 -48 31 -44 -25 c-39 -23 -45 -24 -58 -11 -14 13 -1 24 118 91
137 79 165 90 154 60z m157 -89 c8 -8 -4 -31 -70 -130 -51 -77 -62 -104 -45
-104 4 0 22 -12 40 -27 22 -19 29 -32 23 -41 -6 -11 -20 -6 -65 23 -31 19 -56
43 -56 51 0 22 140 234 155 234 6 0 15 -3 18 -6z m6388 -35 c32 -17 5 -39 -48
-39 -39 0 -51 -5 -84 -39 -42 -41 -50 -81 -27 -124 58 -110 228 -74 228 48 l0
27 -35 -22 c-34 -21 -65 -21 -65 -1 0 9 90 71 103 71 12 0 37 -58 37 -85 0
-63 -64 -130 -134 -140 -112 -17 -197 65 -181 172 13 89 138 169 206 132z
m-6068 -165 c3 -3 -25 -56 -63 -117 -67 -110 -69 -112 -108 -115 -33 -3 -43 1
-61 24 -42 54 -15 84 30 33 l29 -34 25 30 c14 17 34 46 44 65 55 102 67 120
82 120 9 0 18 -3 22 -6z m5807 -14 c29 -29 27 -94 -2 -114 -12 -9 -20 -17 -17
-20 2 -2 36 -18 74 -36 60 -27 67 -33 51 -42 -13 -7 -26 -7 -45 2 -40 19 -131
50 -131 44 0 -2 14 -29 31 -59 27 -48 29 -56 14 -61 -18 -7 -31 7 -75 86 -16
30 -41 74 -55 98 -14 23 -25 48 -25 56 0 19 90 65 128 66 19 0 40 -8 52 -20z
m-5642 -71 c17 -6 43 -26 58 -46 88 -116 -20 -280 -160 -242 -85 23 -135 117
-107 202 11 34 53 80 81 90 26 9 96 7 128 -4z m5358 -74 c18 -14 38 -30 46
-37 7 -7 46 -38 86 -68 39 -30 72 -58 72 -62 0 -18 -51 -6 -80 19 l-32 26 -53
-27 -54 -27 -3 -56 c-4 -78 -23 -79 -32 -2 -10 105 -7 259 6 259 6 0 26 -11
44 -25z m-5102 -60 c14 -13 26 -33 26 -45 0 -28 -33 -26 -45 3 -13 28 -58 31
-63 4 -2 -11 8 -46 23 -78 30 -67 27 -109 -8 -134 -55 -38 -137 1 -137 65 0
40 21 38 40 -3 12 -25 21 -32 44 -32 50 0 54 24 18 103 -33 71 -34 90 -4 125
22 25 74 22 106 -8z m246 -15 c12 -7 7 -12 -22 -25 -68 -28 -104 -16 -50 17
31 20 50 22 72 8z m-78 -57 c76 -32 86 -39 71 -54 -9 -9 -26 -6 -68 11 -59 24
-64 23 -83 -22 -11 -26 -10 -27 48 -50 56 -21 73 -39 50 -53 -5 -3 -36 5 -69
19 l-60 24 -15 -46 c-9 -25 -15 -46 -13 -48 1 -1 28 -14 59 -27 42 -19 56 -30
52 -41 -6 -16 -11 -15 -101 21 -35 15 -63 29 -63 33 0 9 21 60 60 145 16 35
32 76 36 90 8 31 18 31 96 -2z m4543 -52 c29 -13 46 -30 63 -63 28 -57 28 -92
-1 -142 -34 -59 -69 -81 -132 -81 -85 0 -145 56 -152 142 -6 65 20 111 77 141
53 27 92 28 145 3z m-4186 -105 c27 -28 42 -103 29 -151 -10 -37 -54 -82 -94
-95 -36 -12 -82 -4 -152 28 l-40 18 23 59 c13 33 35 94 51 136 l28 77 65 -24
c36 -13 76 -35 90 -48z m3892 4 c21 -12 26 -40 7 -40 -6 0 -26 5 -43 11 -27
10 -38 9 -71 -7 -21 -11 -38 -25 -36 -32 1 -6 -3 -11 -10 -9 -19 3 -37 -62
-27 -98 13 -45 62 -85 105 -85 42 0 100 32 109 60 8 26 45 27 45 1 0 -48 -117
-109 -186 -97 -138 26 -159 234 -29 292 36 16 109 18 136 4z m-3623 -93 c4
-21 -4 -21 -58 -2 -55 20 -77 19 -83 -2 -2 -10 -8 -26 -12 -35 -5 -13 4 -20
54 -34 47 -13 61 -21 61 -35 0 -23 1 -23 -67 -3 -30 9 -57 13 -61 9 -4 -3 -12
-24 -18 -45 l-12 -39 57 -19 c37 -12 57 -25 60 -37 3 -15 -2 -17 -30 -11 -19
3 -58 14 -87 23 -41 12 -52 20 -46 32 3 9 12 38 20 66 7 27 26 84 40 126 l28
76 75 -27 c49 -17 77 -32 79 -43z m4116 15 c-7 -46 -18 -54 -28 -19 -9 36 -7
65 7 70 21 8 28 -8 21 -51z m-784 -140 c90 -105 98 -117 78 -121 -16 -2 -32 7
-55 34 l-32 37 -51 -17 c-54 -18 -64 -29 -74 -87 -5 -28 -12 -38 -25 -38 -18
0 -18 4 -5 73 8 39 19 106 25 147 14 94 17 103 29 95 5 -3 55 -59 110 -123z
m-3109 85 c9 -7 21 -23 28 -36 11 -19 11 -25 0 -32 -10 -6 -20 -1 -34 16 -25
30 -50 32 -64 6 -8 -15 -5 -26 14 -52 46 -63 58 -95 51 -132 -8 -42 -47 -63
-100 -53 -37 7 -50 18 -65 59 -10 24 -8 27 12 27 13 0 26 -9 32 -22 18 -41 85
-31 85 11 0 10 -18 42 -40 71 -45 61 -49 86 -19 124 22 29 71 35 100 13z
m2866 -143 c18 -75 30 -140 27 -145 -15 -25 -31 -4 -43 56 -7 36 -18 65 -25
65 -6 0 -33 -6 -61 -13 -49 -13 -50 -14 -50 -53 1 -21 4 -54 9 -72 7 -30 6
-33 -11 -30 -13 2 -22 22 -36 78 -10 41 -24 103 -32 137 -19 76 -19 73 4 73
15 0 22 -12 32 -55 7 -30 16 -55 21 -55 19 0 103 23 112 31 5 4 4 27 -3 54 -6
25 -9 50 -6 56 18 28 33 -2 62 -127z m-2633 1 c10 -44 24 -111 33 -148 8 -37
13 -70 11 -73 -8 -8 -38 7 -38 20 0 6 -5 27 -10 47 -9 33 -14 37 -66 48 -30 7
-57 11 -58 9 -60 -81 -76 -93 -91 -68 -8 12 185 264 195 253 4 -4 15 -44 24
-88z m253 -112 l39 -62 13 87 c16 103 19 112 37 112 16 0 17 -10 4 -110 -14
-109 -30 -180 -40 -180 -5 0 -17 12 -25 28 -9 15 -26 43 -38 63 -12 20 -36 60
-53 89 -33 53 -44 51 -44 -9 0 -15 -5 -53 -11 -84 -10 -46 -16 -57 -31 -57
-13 0 -18 5 -15 13 3 8 8 40 11 73 8 70 26 183 32 204 3 9 19 -8 43 -45 21
-33 56 -88 78 -122z m2089 161 c36 -17 40 -24 24 -40 -8 -8 -23 -5 -51 9 -35
17 -46 18 -79 8 -78 -23 -118 -122 -72 -176 60 -72 108 -73 204 -3 13 9 20 10
28 2 17 -17 -41 -69 -93 -83 -32 -9 -54 -10 -83 -2 -137 37 -157 230 -29 287
41 18 110 17 151 -2z m-772 -29 c-26 -35 -54 -46 -54 -22 0 25 31 57 56 57
l25 0 -27 -35z m-1008 -57 c9 -17 25 -58 36 -92 39 -119 35 -119 107 -1 35 58
67 105 71 105 13 0 24 -280 11 -293 -20 -20 -30 7 -32 96 -2 48 -5 87 -8 87
-4 0 -28 -39 -54 -85 -27 -47 -52 -85 -56 -85 -8 0 -26 40 -66 144 -24 63 -27
62 -40 -19 -13 -79 -26 -115 -42 -115 -18 0 -13 48 19 175 11 44 20 88 21 97
2 27 15 22 33 -14z m1292 -111 c8 -76 11 -141 8 -144 -3 -3 -36 24 -73 60 -99
95 -125 119 -129 114 -2 -2 1 -41 6 -88 13 -113 13 -111 -12 -107 -13 2 -22 9
-20 17 3 14 -16 212 -24 249 -8 40 19 23 122 -78 l97 -94 -6 44 c-4 25 -9 74
-13 109 -6 58 -5 63 12 59 17 -3 21 -20 32 -141z m-350 101 c3 -14 -4 -18 -30
-18 l-34 0 4 -130 c4 -115 2 -130 -12 -130 -9 0 -17 8 -17 18 -1 9 -4 67 -8
127 l-6 110 -32 3 c-46 5 -43 30 5 35 79 9 127 3 130 -15z m62 5 c0 -10 3 -78
7 -150 4 -98 3 -133 -6 -133 -6 0 -15 10 -20 23 -11 29 -24 253 -16 267 10 17
35 11 35 -7z m-580 -2 c0 -5 15 -42 34 -83 18 -40 37 -84 41 -98 4 -14 16 -42
26 -62 19 -38 19 -38 -1 -38 -14 0 -27 14 -42 45 l-22 45 -56 0 c-55 0 -55 0
-82 -45 -27 -45 -41 -54 -53 -35 -4 7 92 207 132 273 6 10 23 9 23 -2z m294
-3 c63 -28 47 -142 -22 -150 -25 -3 -25 -4 27 -65 52 -63 52 -63 24 -63 -22 1
-38 14 -78 66 -55 71 -61 68 -53 -22 3 -40 1 -44 -19 -44 -23 0 -23 1 -23 145
l0 145 60 0 c32 0 70 -5 84 -12z m696 -184 c0 -28 -26 -84 -37 -82 -15 3 -16
8 -7 56 4 23 12 32 25 32 11 0 19 -3 19 -6z"/>
<path d="M6543 10880 c-12 -74 -24 -159 -28 -187 l-6 -53 42 0 41 0 -7 113
c-4 63 -10 147 -14 188 l-6 74 -22 -135z"/>
<path d="M5730 11088 c1 -72 20 -498 26 -576 l7 -83 26 6 c14 4 29 12 34 18 8
13 0 400 -13 540 -8 91 -16 109 -57 122 -21 6 -23 3 -23 -27z"/>
<path d="M8604 10835 c-8 -13 -21 -50 -29 -82 -7 -32 -38 -156 -69 -277 -31
-120 -58 -242 -59 -270 -2 -46 0 -51 20 -54 17 -3 26 5 38 35 15 34 148 547
161 617 9 53 -33 75 -62 31z"/>
<path d="M9086 7875 c-5 -33 -10 -76 -12 -95 -1 -19 -17 -136 -33 -260 -62
-459 -132 -1104 -120 -1113 2 -2 75 -2 162 1 156 4 158 5 154 26 -16 65 -117
1096 -118 1196 0 36 -6 119 -13 185 l-12 120 -8 -60z"/>
<path d="M5270 4631 c-12 -24 -14 -450 -1 -470 5 -8 16 -11 25 -8 14 6 16 35
16 236 0 126 -3 236 -6 245 -8 21 -21 20 -34 -3z"/>
<path d="M7147 4643 c-4 -3 -7 -116 -7 -250 0 -230 1 -243 19 -243 14 0 20 10
25 46 8 60 8 367 0 417 -6 34 -21 47 -37 30z"/>
<path d="M8466 4500 c-4 -30 -10 -88 -13 -127 l-5 -73 26 0 c30 0 29 -7 12
145 l-12 110 -8 -55z"/>
<path d="M10111 4440 c-7 -58 -15 -113 -17 -122 -4 -15 1 -18 26 -18 l32 0 -7
83 c-14 165 -19 174 -34 57z"/>
<path d="M10557 2750 c9 -22 19 -40 23 -40 3 0 17 11 29 24 l23 25 -37 15
c-53 22 -55 21 -38 -24z"/>
<path d="M2762 2320 c-12 -16 -22 -33 -22 -38 0 -14 64 -45 85 -41 32 7 31 52
-2 83 -15 14 -30 26 -34 26 -3 0 -15 -13 -27 -30z"/>
<path d="M2991 2126 c-7 -8 -23 -17 -36 -20 -33 -8 -31 -18 5 -39 l29 -18 7
28 c3 15 8 36 11 46 5 21 0 22 -16 3z"/>
<path d="M9234 1844 l-31 -16 20 -39 c10 -21 22 -39 25 -39 3 0 20 12 39 26
26 20 33 32 31 52 -4 33 -38 39 -84 16z"/>
<path d="M3589 1774 c-60 -25 -86 -96 -57 -158 13 -29 69 -66 99 -66 55 0 119
64 119 120 0 41 -34 89 -76 106 -40 17 -40 17 -85 -2z"/>
<path d="M9038 1653 c2 -27 5 -49 6 -50 1 -1 17 7 35 18 l33 20 -37 29 c-21
17 -39 30 -40 30 -1 0 0 -21 3 -47z"/>
<path d="M8520 1503 c-80 -71 -26 -204 82 -203 52 1 108 59 108 113 0 98 -118
154 -190 90z"/>
<path d="M4310 1378 c-17 -51 -34 -98 -36 -104 -3 -6 20 -19 50 -29 72 -25
110 -10 138 52 32 73 8 122 -76 157 -21 9 -40 16 -41 16 -2 0 -18 -42 -35 -92z"/>
<path d="M7976 1241 c-4 -24 -5 -46 -2 -48 2 -2 18 2 35 9 l32 13 -29 34 -29
35 -7 -43z"/>
<path d="M5128 1146 l-27 -34 35 -7 c20 -3 38 -4 41 -2 6 7 -8 77 -16 77 -3 0
-18 -15 -33 -34z"/>
<path d="M6154 1023 l-21 -41 36 -5 c20 -2 37 -3 39 -1 2 1 -5 22 -15 45 l-19
43 -20 -41z"/>
<path d="M6380 1054 l0 -46 43 7 c23 4 48 12 55 17 33 27 -3 68 -59 68 l-39 0
0 -46z"/>
</g>
</svg>
