<?xml version="1.0" standalone="no"?>
<!DOCTYPE svg PUBLIC "-//W3C//DTD SVG 20010904//EN"
 "http://www.w3.org/TR/2001/REC-SVG-20010904/DTD/svg10.dtd">
<svg version="1.0" xmlns="http://www.w3.org/2000/svg"
 width="500.000000pt" height="500.000000pt" viewBox="0 0 500.000000 500.000000"
 preserveAspectRatio="xMidYMid meet">

<g transform="translate(0.000000,500.000000) scale(0.100000,-0.100000)"
fill="#000000" stroke="none">
<path d="M2295 4983 c-267 -32 -309 -40 -475 -87 -25 -7 -44 -18 -42 -25 1 -6
-4 -12 -10 -13 -7 0 10 -4 37 -8 l50 -7 -50 -2 c-39 -1 -46 -4 -33 -12 13 -7
54 0 155 26 126 33 162 45 137 45 -5 0 -43 -9 -84 -20 -41 -11 -88 -19 -105
-19 -30 1 -30 1 5 9 19 5 53 14 75 20 22 7 59 14 83 17 33 4 42 9 42 24 0 16
7 19 43 17 37 -1 38 -2 9 -5 -45 -6 -30 -23 21 -23 31 0 38 3 27 10 -11 7 -5
10 25 11 33 0 36 2 20 10 -17 8 -17 9 5 4 14 -2 39 -5 55 -6 19 -1 11 -5 -25
-10 -30 -5 -56 -14 -58 -19 -2 -6 -30 -10 -63 -10 -36 0 -59 -4 -59 -11 0 -6
11 -8 28 -5 15 3 59 8 97 12 39 3 84 12 100 19 17 7 82 16 145 18 141 7 132 0
-16 -12 -106 -9 -104 -9 71 -8 99 1 191 -2 204 -7 16 -6 21 -5 17 3 -4 6 -3
11 3 11 5 0 11 -4 13 -9 3 -10 111 -14 186 -8 38 3 47 -1 43 -25 0 -3 13 -9
28 -13 28 -6 71 11 71 27 0 5 11 8 25 8 29 0 34 -16 8 -23 -10 -2 -4 -4 12 -4
34 0 147 -22 155 -30 3 -3 -11 -3 -30 1 -59 10 -198 15 -170 6 14 -4 48 -9 75
-10 28 -1 61 -6 75 -10 18 -7 11 -8 -25 -5 -58 6 -58 5 60 -30 50 -15 96 -32
103 -38 7 -5 15 -7 19 -3 3 3 1 6 -5 6 -20 0 -13 28 9 35 26 8 39 -3 19 -16
-11 -7 -4 -8 21 -4 25 5 39 2 48 -8 10 -13 9 -15 -10 -10 -16 5 -20 3 -14 -6
6 -10 -1 -12 -26 -7 l-34 6 36 -14 c20 -8 50 -21 67 -30 28 -15 32 -15 32 -1
0 9 -9 15 -25 15 -14 0 -25 5 -25 10 0 6 14 10 30 10 17 0 30 -4 30 -10 0 -5
6 -7 13 -4 7 2 24 0 38 -5 17 -7 19 -10 7 -10 -10 -1 -18 -6 -18 -12 0 -7 11
-8 29 -4 17 3 32 2 36 -4 6 -11 -11 -15 -54 -11 -15 1 -21 -2 -16 -10 4 -6 13
-9 21 -6 8 3 14 2 14 -2 0 -10 96 -62 114 -62 8 0 16 -4 18 -8 3 -9 125 -92
134 -92 3 0 3 4 0 8 -10 16 12 35 30 27 18 -7 18 -8 -1 -15 -13 -6 -15 -9 -5
-9 12 -1 12 -3 2 -10 -11 -6 -11 -10 0 -18 17 -12 58 -14 58 -3 0 5 7 7 15 4
22 -9 8 -24 -23 -25 -27 0 -27 0 -4 -11 12 -6 22 -15 22 -20 0 -5 10 -6 23 -3
14 4 18 3 9 -3 -10 -7 -10 -11 3 -22 14 -11 20 -12 38 -1 18 12 22 11 34 -5
16 -22 17 -42 1 -26 -7 7 -18 12 -25 12 -7 0 7 -18 31 -40 38 -35 47 -39 68
-31 21 8 31 4 66 -26 24 -20 42 -44 42 -56 0 -11 8 -26 18 -33 9 -7 12 -14 5
-14 -6 0 -15 5 -18 10 -4 6 -9 9 -13 7 -4 -2 -20 11 -35 29 -23 27 -25 34 -12
34 9 0 13 5 10 10 -9 15 -22 12 -29 -6 -4 -12 16 -38 69 -90 41 -41 75 -78 75
-82 0 -4 9 -13 21 -20 24 -15 20 -4 -10 32 -15 18 -15 18 7 7 12 -7 27 -9 33
-5 8 4 9 -3 5 -23 -5 -23 -3 -32 10 -37 22 -9 30 0 15 17 -6 8 -9 21 -6 28 5
15 -53 85 -62 75 -4 -3 4 -17 17 -31 13 -14 18 -25 12 -25 -16 0 -45 47 -37
60 6 10 -132 153 -216 225 -60 51 -185 145 -193 145 -4 0 -28 16 -53 35 -34
26 -52 33 -69 29 -23 -6 -35 11 -13 18 6 2 -13 15 -43 28 -29 14 -55 27 -58
31 -9 10 -142 76 -220 109 -105 44 -336 118 -432 140 -164 36 -587 61 -733 43z
m98 -10 c-7 -2 -19 -2 -25 0 -7 3 -2 5 12 5 14 0 19 -2 13 -5z m75 0 c-10 -2
-28 -2 -40 0 -13 2 -5 4 17 4 22 1 32 -1 23 -4z m151 -9 c2 -2 -10 -4 -27 -4
-18 0 -32 5 -32 10 0 9 47 4 59 -6z m-234 -4 l60 -7 -55 -1 c-30 0 -75 3 -100
7 l-45 8 40 1 c22 0 67 -4 100 -8z m375 0 c0 -5 -4 -10 -9 -10 -5 0 -23 -3
-41 -7 -23 -4 -31 -3 -26 5 4 6 -5 12 -21 15 -16 2 0 5 35 6 35 0 62 -3 62 -9z
m68 -7 c-27 -4 -37 -17 -20 -26 4 -2 1 -2 -6 0 -8 1 -23 3 -35 3 -19 1 -18 3
8 15 17 7 41 13 55 13 23 -1 23 -1 -2 -5z m-195 -10 c-7 -2 -19 -2 -25 0 -7 3
-2 5 12 5 14 0 19 -2 13 -5z m380 -19 c37 -13 38 -14 7 -8 -43 8 -115 8 -155
0 -26 -5 -27 -5 -5 3 l25 9 -25 2 -25 2 25 8 c30 10 96 3 153 -16z m-1013 2
c-19 -17 -74 -31 -65 -16 3 5 17 10 30 10 13 0 27 5 30 10 3 6 9 10 13 10 3 0
0 -6 -8 -14z m57 -2 c-3 -3 -12 -4 -19 -1 -8 3 -5 6 6 6 11 1 17 -2 13 -5z
m-152 -34 c-3 -5 -15 -10 -26 -10 -11 0 -17 5 -14 10 3 6 15 10 26 10 11 0 17
-4 14 -10z m1122 -1 c-14 -8 -22 -8 -30 0 -8 8 -3 11 19 11 25 -1 27 -2 11
-11z m-1187 -19 c0 -5 -12 -10 -27 -10 -22 0 -25 2 -13 10 20 13 40 13 40 0z
m1470 -30 c12 -8 11 -10 -7 -10 -12 0 -23 -5 -25 -12 -3 -7 -9 -8 -18 -3 -10
6 -9 11 5 22 22 15 25 16 45 3z m60 -20 c0 -5 -4 -10 -10 -10 -5 0 -10 5 -10
10 0 6 5 10 10 10 6 0 10 -4 10 -10z m296 -147 c-1 -12 9 -19 28 -23 16 -3 31
-11 34 -17 5 -16 3 -16 -37 -2 -17 6 -31 14 -31 19 0 4 -10 10 -22 14 -19 5
-21 8 -8 16 23 15 38 12 36 -7z m134 -82 c49 -26 51 -46 3 -24 -41 19 -64 43
-56 56 3 5 9 4 13 -2 3 -7 22 -20 40 -30z m63 -46 c-5 -13 -23 -22 -23 -11 0
15 14 35 21 31 4 -3 6 -12 2 -20z m134 -87 c-3 -8 -6 -5 -6 6 -1 11 2 17 5 13
3 -3 4 -12 1 -19z m48 -18 c3 -5 -1 -10 -9 -10 -8 0 -18 5 -21 10 -3 6 1 10 9
10 8 0 18 -4 21 -10z m62 -63 c-6 -19 -23 -18 -23 2 0 11 5 17 14 14 7 -3 11
-10 9 -16z m23 -27 c20 -12 9 -21 -18 -13 -12 3 -19 9 -16 14 7 11 15 11 34
-1z"/>
<path d="M2901 4896 c12 -10 59 -15 59 -6 0 5 -14 10 -32 10 -17 0 -29 -2 -27
-4z"/>
<path d="M1720 4865 l-35 -13 30 -4 c18 -3 7 -5 -25 -5 -42 -1 -77 -11 -146
-41 -125 -55 -258 -124 -324 -166 l-55 -35 35 0 c26 0 30 2 16 8 -19 7 -19 8
-1 15 10 3 21 2 25 -4 4 -6 14 -8 23 -4 17 6 21 16 18 41 -1 10 5 10 24 3 30
-11 55 5 55 36 0 13 3 14 15 4 12 -10 15 -10 15 4 0 9 6 16 14 16 8 0 22 8 31
17 13 12 21 14 34 6 11 -7 26 -7 46 0 39 13 42 16 25 27 -11 7 -7 11 16 20 16
7 44 19 63 27 22 9 37 11 44 4 6 -6 16 -6 26 -1 9 5 27 11 41 14 17 3 26 13
27 26 1 11 1 20 0 19 -1 0 -18 -6 -37 -14z m-210 -105 c-8 -6 -22 -10 -30 -9
-9 0 -5 6 10 14 27 14 44 10 20 -5z m-170 -80 c-8 -5 -22 -9 -30 -9 -10 0 -8
3 5 9 27 12 43 12 25 0z m-65 -40 c-3 -5 -11 -10 -16 -10 -6 0 -7 5 -4 10 3 6
11 10 16 10 6 0 7 -4 4 -10z"/>
<path d="M1715 4814 c-16 -7 -40 -10 -52 -7 -29 7 -63 -5 -63 -23 0 -20 36
-18 100 7 62 23 65 25 53 32 -4 2 -21 -2 -38 -9z m-62 -31 c-7 -2 -21 -2 -30
0 -10 3 -4 5 12 5 17 0 24 -2 18 -5z"/>
<path d="M1565 4780 c-3 -5 1 -10 9 -10 9 0 16 5 16 10 0 6 -4 10 -9 10 -6 0
-13 -4 -16 -10z"/>
<path d="M1547 4744 c-44 -24 -26 -27 24 -5 27 12 36 20 24 20 -11 0 -33 -7
-48 -15z"/>
<path d="M1427 4712 c-19 -21 -22 -42 -7 -42 6 0 10 6 10 14 0 8 5 18 12 22 7
4 8 3 4 -4 -10 -16 14 -14 44 3 15 9 19 14 10 15 -8 0 -24 3 -35 6 -13 3 -27
-2 -38 -14z"/>
<path d="M1357 4659 c-9 -10 -25 -19 -36 -19 -10 0 -24 -7 -32 -16 -24 -29
-68 -45 -104 -38 -30 5 -44 0 -102 -40 -113 -75 -117 -80 -83 -89 18 -4 20 -2
14 16 -6 19 -5 20 10 8 10 -8 14 -21 11 -32 -5 -14 -2 -17 9 -13 20 8 20 9 0
39 -19 28 -4 34 22 8 16 -16 18 -16 35 6 10 13 17 27 14 31 -3 5 0 12 6 16 9
5 10 0 7 -14 -7 -24 -1 -27 21 -13 7 5 10 14 7 20 -5 7 2 11 17 11 14 0 29 6
35 13 6 7 42 28 79 47 88 45 117 66 99 73 -7 3 -20 -3 -29 -14z m-179 -96
c-10 -2 -26 -2 -35 0 -10 3 -2 5 17 5 19 0 27 -2 18 -5z"/>
<path d="M878 4388 c-46 -39 -87 -77 -91 -84 -13 -23 8 -16 33 11 24 25 24 25
32 5 4 -11 11 -20 15 -20 10 0 78 60 68 60 -4 0 -2 7 5 15 7 8 16 12 21 9 11
-7 58 27 59 43 0 6 -13 16 -30 21 -28 10 -34 7 -112 -60z m98 33 c9 7 14 8 14
1 0 -6 -6 -12 -12 -15 -19 -6 -39 4 -31 16 5 8 8 7 11 -1 3 -10 7 -10 18 -1z
m-54 -44 c-7 -8 -9 -17 -5 -20 3 -4 1 -7 -5 -7 -21 0 -25 23 -7 36 22 16 33
10 17 -9z m-34 -40 c2 -9 -2 -17 -8 -17 -6 0 -8 5 -4 11 3 6 0 16 -7 21 -12 8
-11 9 1 5 8 -2 16 -11 18 -20z"/>
<path d="M4161 4313 c-1 -7 -8 -13 -17 -13 -14 0 -14 -3 -3 -16 11 -14 13 -14
21 1 5 9 7 21 4 28 -3 9 -5 9 -5 0z"/>
<path d="M819 4294 c-7 -9 -21 -13 -33 -10 -16 4 -35 -10 -84 -62 -117 -124
-213 -248 -206 -266 6 -15 9 -15 29 4 15 14 21 28 17 42 -3 14 -1 19 6 14 8
-4 12 0 12 11 1 17 1 16 12 -1 8 -15 8 -21 0 -24 -7 -2 -12 -10 -12 -18 0 -8
-12 -27 -26 -44 -31 -34 -56 -80 -45 -80 7 0 68 88 80 114 2 5 18 23 35 40 31
31 45 71 22 63 -6 -2 -11 -10 -11 -18 -1 -18 -14 -39 -24 -39 -15 0 1 55 21
74 15 14 22 15 27 7 6 -9 12 -7 22 5 12 16 12 17 -3 11 -10 -3 -20 -1 -24 5
-4 7 -3 8 4 4 7 -4 12 -3 12 3 0 6 7 8 15 5 8 -4 15 -1 15 5 0 6 -5 11 -10 11
-6 0 -5 8 2 20 7 11 17 20 22 20 6 0 5 -5 -2 -12 -15 -15 -16 -28 -2 -28 5 0
12 11 16 25 3 13 9 24 13 23 19 -2 32 4 51 24 30 33 24 46 -8 15 -37 -36 -49
-34 -20 2 13 17 33 30 45 30 20 1 22 -2 12 -26 -10 -28 -10 -27 26 7 20 19 31
36 25 38 -5 2 -8 8 -4 13 9 15 -13 10 -27 -7z m16 -14 c-3 -5 -11 -10 -16 -10
-6 0 -7 5 -4 10 3 6 11 10 16 10 6 0 7 -4 4 -10z m-310 -309 c-3 -6 -11 -11
-17 -11 -6 0 -6 6 2 15 14 17 26 13 15 -4z"/>
<path d="M4210 4261 c0 -5 7 -14 15 -21 16 -14 18 -10 9 14 -6 17 -24 22 -24
7z"/>
<path d="M745 4192 c-15 -10 -55 -68 -55 -79 0 -4 7 1 15 11 8 11 26 32 40 48
24 26 23 37 0 20z"/>
<path d="M4400 4090 c0 -5 8 -13 17 -18 14 -9 15 -12 2 -24 -8 -8 -21 -12 -29
-10 -12 4 -12 2 1 -19 9 -13 19 -30 23 -37 6 -10 11 -10 22 -1 8 6 18 9 21 5
4 -4 1 -11 -7 -16 -12 -7 -12 -12 -2 -22 9 -9 12 -8 12 6 0 10 5 14 11 10 8
-4 9 1 5 17 -6 21 -6 22 5 5 8 -12 8 -25 1 -40 -10 -22 -1 -59 17 -71 15 -9
13 6 -4 29 -19 25 -1 53 21 35 8 -6 14 -16 14 -21 0 -6 -7 -5 -15 2 -19 16
-19 1 0 -24 8 -11 13 -27 10 -35 -5 -19 11 -49 21 -38 4 3 1 13 -6 22 -10 12
-10 15 0 15 7 0 10 7 6 16 -3 9 -2 12 5 9 5 -4 7 -15 4 -25 -4 -12 -1 -17 10
-16 9 0 23 -12 33 -29 9 -16 20 -31 25 -33 4 -2 7 -10 7 -18 0 -8 5 -14 10
-14 13 0 13 -41 -1 -60 -8 -12 -9 -10 -4 7 3 12 -1 35 -9 50 -19 36 -68 93
-60 71 3 -10 1 -18 -5 -18 -6 0 -11 -5 -11 -11 0 -6 7 -9 15 -5 10 3 24 -8 42
-36 20 -29 24 -43 15 -46 -8 -2 3 -33 37 -95 26 -51 51 -105 55 -120 6 -24 9
-26 21 -14 12 12 12 20 -1 57 -8 23 -13 45 -10 47 9 9 38 -68 33 -87 -3 -11
-1 -22 4 -25 4 -3 11 5 14 18 12 47 -147 332 -299 534 -58 78 -76 95 -76 73z
m50 -64 c14 -18 14 -19 -8 -7 -12 7 -20 17 -16 22 3 6 7 9 8 7 1 -2 8 -12 16
-22z m-25 -16 c3 -5 1 -10 -4 -10 -6 0 -11 5 -11 10 0 6 2 10 4 10 3 0 8 -4
11 -10z m260 -350 c8 -16 15 -37 15 -47 0 -14 2 -15 9 -4 6 8 9 -6 8 -40 l0
-54 -18 40 c-10 22 -19 45 -19 51 0 6 -7 17 -15 24 -17 14 -21 60 -5 60 5 0
16 -13 25 -30z"/>
<path d="M4660 3650 c0 -5 5 -10 11 -10 5 0 7 5 4 10 -3 6 -8 10 -11 10 -2 0
-4 -4 -4 -10z"/>
<path d="M449 3907 c-70 -88 -222 -370 -260 -482 -7 -22 -16 -44 -20 -50 -17
-24 -82 -250 -104 -360 -48 -240 -58 -344 -52 -570 3 -117 11 -234 18 -265
l13 -55 7 45 c10 62 9 107 -1 60 -5 -22 -6 -6 -3 40 6 81 13 106 13 47 0 -21
5 -37 11 -37 8 0 10 -17 6 -55 -3 -31 -2 -55 4 -55 5 0 9 -10 10 -22 0 -13 5
-32 10 -43 6 -14 7 -4 3 30 -4 28 -8 59 -9 70 -1 11 -3 47 -4 80 -1 33 -5 55
-9 48 -4 -7 -7 57 -5 141 1 84 -2 166 -7 182 -5 18 -7 -23 -3 -112 3 -96 1
-144 -6 -149 -7 -4 -12 5 -13 22 -1 15 -5 -10 -8 -57 -6 -73 -7 -65 -7 65 -1
83 -2 155 -3 160 -1 6 -1 42 0 80 2 53 4 63 9 40 7 -27 8 -24 15 27 5 32 6 79
3 105 -4 27 -3 37 1 23 5 -14 10 -20 14 -15 5 10 22 115 23 145 0 8 4 18 10
22 6 5 6 17 0 35 -11 32 -8 83 5 83 5 0 11 -8 13 -17 3 -10 5 -2 6 17 0 27 -2
31 -9 20 -8 -11 -9 -7 -4 15 14 65 24 44 20 -46 -2 -59 0 -83 5 -64 4 17 15
55 23 85 8 30 28 96 45 145 35 103 34 98 21 90 -5 -3 -10 1 -10 10 0 11 5 15
15 11 9 -3 15 0 15 8 0 8 -4 16 -9 18 -12 4 10 78 22 78 5 0 6 13 2 29 -3 17
-2 32 4 36 6 3 11 15 11 26 0 10 5 19 10 19 6 0 10 8 10 18 0 10 5 23 12 30 9
9 15 6 24 -16 l11 -27 16 35 c9 19 35 62 56 95 40 61 49 89 31 100 -5 3 -10
14 -9 23 0 11 3 12 6 5 7 -20 19 -15 31 12 14 30 16 55 5 55 -5 0 -20 -15 -34
-33z m25 -12 c-4 -8 -8 -15 -10 -15 -2 0 -4 7 -4 15 0 8 4 15 10 15 5 0 7 -7
4 -15z m-24 -88 c0 -3 -7 -7 -14 -10 -10 -4 -13 -1 -9 9 3 7 1 14 -5 14 -13 0
-23 -27 -16 -45 5 -11 2 -13 -10 -9 -9 3 -16 8 -16 10 0 8 25 49 34 56 8 6 36
-14 36 -25z m-77 -64 c-6 -16 -5 -16 10 -4 12 9 17 10 17 2 0 -6 -7 -14 -15
-17 -8 -4 -15 -12 -15 -20 0 -8 -4 -14 -10 -14 -5 0 -10 6 -10 13 0 24 12 57
21 57 5 0 5 -8 2 -17z m-142 -270 c-12 -20 -14 -14 -5 12 4 9 9 14 11 11 3 -2
0 -13 -6 -23z m-26 -70 c-9 -15 -13 -19 -10 -8 4 11 10 29 13 40 3 11 7 14 9
8 3 -7 -3 -24 -12 -40z m4 -66 c-1 -17 -2 -18 -6 -4 -2 9 -9 17 -14 17 -6 0
-7 5 -4 10 10 16 25 1 24 -23z m-19 -72 c-7 -8 -18 -38 -26 -67 -12 -49 -13
-50 -9 -11 3 23 8 48 11 57 3 9 1 16 -5 16 -6 0 -11 -9 -11 -21 0 -11 -4 -18
-9 -15 -4 3 -3 21 3 41 10 32 12 34 24 18 9 -13 12 -13 12 -2 0 8 -4 21 -9 29
-6 8 -7 18 -4 23 3 5 12 -5 20 -22 12 -25 13 -34 3 -46z m-105 -272 c-4 -37
-11 -74 -16 -83 -7 -11 -9 -5 -5 20 3 19 8 56 12 83 10 71 16 57 9 -20z m-38
-220 c-3 -10 -5 -2 -5 17 0 19 2 27 5 18 2 -10 2 -26 0 -35z"/>
<path d="M4580 3754 c0 -6 7 -19 16 -30 14 -18 14 -18 3 6 -14 31 -19 36 -19
24z"/>
<path d="M313 3618 c4 -14 0 -26 -11 -35 -14 -11 -15 -14 -3 -22 18 -12 44 33
36 61 -9 26 -29 23 -22 -4z"/>
<path d="M287 3543 c-3 -5 -8 -25 -12 -46 -4 -20 -11 -37 -16 -37 -5 0 -9 -8
-9 -17 0 -24 14 -6 38 49 11 26 17 50 12 53 -5 3 -11 2 -13 -2z"/>
<path d="M4781 3454 c-10 -22 -9 -25 3 -21 8 3 16 -2 19 -13 3 -13 0 -17 -9
-13 -11 4 -11 -1 1 -31 8 -19 15 -41 14 -48 0 -12 -10 7 -29 57 -23 62 -33 79
-37 67 -3 -8 -1 -24 5 -35 6 -12 22 -53 36 -92 23 -65 25 -68 27 -35 2 19 2
51 1 70 -1 19 1 28 4 20 3 -8 8 -22 12 -30 3 -8 6 -19 7 -25 7 -54 39 -165 45
-155 4 7 10 -8 14 -35 4 -26 5 -49 2 -53 -3 -3 -6 4 -6 16 0 11 -4 23 -9 26
-13 8 -21 -19 -20 -62 l2 -37 6 40 6 40 19 -68 c16 -60 17 -74 6 -108 -7 -21
-10 -42 -7 -46 4 -3 7 3 7 15 0 11 5 24 10 27 6 3 10 23 11 43 0 30 2 33 9 17
5 -11 8 -49 8 -85 -1 -62 -1 -63 -8 -20 l-7 45 -1 -42 c-1 -24 -6 -43 -12 -43
-5 0 -10 -7 -10 -15 0 -21 17 -19 24 3 6 19 0 -37 -8 -83 -5 -25 -4 -26 2 -5
7 24 8 24 16 5 4 -11 11 -67 14 -125 5 -86 8 -97 13 -60 5 36 6 28 6 -35 1
-135 -12 -155 -22 -35 -5 58 -9 124 -9 148 0 23 -3 42 -7 42 -4 0 -6 -91 -5
-202 0 -112 4 -183 7 -158 6 43 6 44 9 10 7 -87 -9 -178 -30 -165 -6 4 -10 -6
-9 -22 0 -15 3 -23 6 -16 9 24 43 -9 43 -42 -1 -39 -36 -140 -44 -126 -4 6 2
29 14 53 21 45 26 93 10 103 -6 4 -10 -9 -11 -32 0 -21 -5 -47 -10 -58 -7 -15
-8 -11 -5 17 3 21 0 40 -5 43 -9 6 -13 -14 -10 -52 1 -13 -2 -23 -8 -23 -5 0
-11 -18 -13 -39 -2 -22 0 -37 4 -35 13 8 9 -30 -7 -77 -14 -38 -14 -45 -1 -54
10 -8 12 -16 5 -26 -7 -11 -9 -10 -10 6 -1 11 -5 4 -10 -15 -4 -19 -6 -44 -2
-55 5 -19 4 -19 -12 -4 -16 15 -16 20 0 83 21 84 13 98 -10 19 -14 -47 -15
-66 -6 -101 14 -54 14 -72 0 -52 -8 11 -9 8 -5 -15 5 -24 4 -27 -4 -12 -6 9
-9 26 -5 36 3 10 2 27 -2 37 -6 17 -8 16 -14 -6 -3 -14 0 -40 8 -59 16 -41 16
-52 1 -49 -7 2 -15 -13 -18 -37 -3 -22 -15 -58 -27 -80 -12 -22 -25 -53 -29
-70 -5 -21 -8 -25 -11 -12 -3 9 -9 17 -14 17 -5 0 -9 8 -9 18 0 11 -5 7 -16
-13 -8 -16 -20 -33 -27 -37 -6 -4 -8 -11 -3 -15 4 -4 16 3 27 16 27 33 30 24
12 -34 -19 -60 -22 -63 -32 -46 -7 10 -11 8 -16 -10 -9 -29 -34 -59 -49 -59
-7 0 -7 3 -1 8 13 9 34 42 41 64 3 9 15 19 26 21 12 4 17 10 13 17 -6 9 -10 9
-16 -1 -7 -12 -9 -11 -9 1 -1 8 -9 -1 -19 -21 -10 -20 -25 -47 -34 -59 -10
-14 -14 -33 -11 -47 4 -14 2 -23 -5 -23 -6 0 -11 -9 -11 -20 0 -13 -7 -20 -19
-20 -11 0 -41 -30 -78 -77 -69 -90 -98 -133 -89 -133 3 0 15 15 26 32 11 18
20 27 20 21 0 -7 5 -13 11 -13 6 0 9 6 6 14 -3 8 3 22 14 32 10 9 19 13 19 9
0 -4 9 0 20 10 24 21 26 40 5 31 -8 -3 -15 -1 -15 4 0 6 7 10 15 10 9 0 21 11
27 25 6 14 15 25 20 25 14 0 9 -19 -11 -39 -11 -11 -15 -21 -10 -23 6 -2 -1
-16 -15 -31 -14 -16 -26 -32 -26 -37 0 -5 -7 -7 -15 -4 -11 5 -13 2 -9 -10 4
-11 -5 -22 -29 -36 -19 -12 -38 -27 -41 -35 -3 -8 -13 -15 -23 -15 -15 0 -16
2 -3 10 13 8 12 10 -3 10 -14 0 -17 -5 -12 -21 5 -14 3 -19 -7 -18 -7 2 -64
-47 -126 -109 -62 -62 -108 -112 -102 -112 17 0 11 -14 -11 -28 -19 -12 -20
-11 -14 10 5 18 4 20 -4 8 -6 -8 -8 -23 -5 -32 6 -20 -12 -25 -18 -6 -4 10
-131 -77 -176 -119 -7 -7 -18 -13 -23 -13 -5 0 -9 -7 -9 -15 0 -8 -6 -13 -12
-11 -7 1 -10 1 -5 -1 4 -3 7 -16 7 -30 0 -20 -4 -24 -19 -20 -23 6 -51 -9 -51
-28 0 -8 -4 -17 -10 -20 -5 -3 -8 0 -5 7 3 7 1 20 -4 27 -8 13 -15 12 -45 -4
-20 -11 -36 -26 -36 -35 0 -9 3 -11 8 -5 7 10 48 35 57 35 16 0 1 -18 -22 -26
-25 -9 -24 -10 18 -9 36 2 59 11 109 46 34 24 70 49 79 54 49 30 141 100 141
107 0 4 5 8 10 8 19 0 237 209 317 305 23 28 54 64 68 80 42 48 85 112 85 127
0 7 9 19 19 25 32 20 93 130 86 155 -4 16 -3 19 3 10 7 -10 14 -5 31 23 11 20
21 40 21 46 0 5 4 9 9 9 5 0 13 10 17 22 3 12 22 54 41 95 19 40 31 78 27 85
-4 6 -3 8 2 5 13 -7 69 139 66 172 -1 13 1 21 5 17 4 -4 13 12 19 36 57 211
74 286 84 371 6 53 9 111 5 127 -4 19 -3 30 4 30 15 0 14 27 -1 33 -10 4 -10
8 1 15 12 8 13 45 7 219 -3 114 -10 226 -15 248 -8 36 -9 37 -10 10 -1 -16 -4
-41 -6 -55 -5 -22 -4 -22 4 -5 8 16 10 13 10 -20 0 -22 -3 -46 -8 -54 -14 -21
-25 119 -12 152 6 16 11 40 11 55 0 26 -31 154 -64 267 -8 28 -21 75 -30 105
-9 30 -29 88 -44 128 -28 71 -29 72 -41 46z m136 -406 c-3 -7 -5 -2 -5 12 0
14 2 19 5 13 2 -7 2 -19 0 -25z m63 -390 c0 -19 -2 -20 -10 -8 -13 19 -13 30
0 30 6 0 10 -10 10 -22z m-12 -418 c-1 -22 -5 -40 -10 -40 -5 0 -6 -11 -2 -24
3 -14 1 -27 -7 -31 -9 -6 -11 3 -6 40 4 26 7 58 7 71 0 13 4 24 10 24 5 0 9
-18 8 -40z m-58 -330 c0 -16 -4 -32 -10 -35 -5 -3 -10 -17 -10 -31 0 -13 -4
-24 -10 -24 -13 0 -13 37 0 45 6 4 7 11 4 17 -4 7 -2 8 4 4 7 -4 9 5 5 30 -4
27 -3 35 5 30 7 -4 12 -20 12 -36z m-294 -697 c-20 -38 -45 -70 -46 -58 0 11
48 85 56 85 2 0 -2 -12 -10 -27z m-207 -301 c-7 -11 -32 -33 -56 -48 -24 -15
-43 -32 -43 -38 0 -6 5 -4 10 4 7 10 10 11 10 2 0 -7 -11 -17 -25 -22 -14 -5
-30 -21 -35 -34 -5 -13 -21 -30 -37 -38 -15 -7 -34 -26 -41 -41 -7 -15 -18
-27 -25 -27 -8 0 -8 3 2 9 8 5 9 11 3 15 -11 6 -25 -21 -17 -34 3 -4 -8 -16
-23 -25 -15 -10 -31 -24 -35 -32 -4 -7 -19 -13 -32 -13 -16 0 -25 -6 -25 -15
0 -8 -4 -15 -10 -15 -5 0 -10 4 -10 9 0 16 30 40 43 35 15 -5 70 49 73 72 3
21 24 44 40 44 8 0 14 6 14 14 0 8 13 17 29 21 18 4 28 11 25 19 -3 7 16 34
41 60 25 26 45 41 45 34 1 -9 5 -7 14 5 7 9 17 17 22 17 5 1 18 12 29 25 23
28 32 26 14 -3z m-399 -367 c0 -8 -4 -17 -10 -20 -6 -4 -7 1 -3 12 6 15 4 16
-9 6 -8 -7 -18 -10 -21 -6 -8 8 25 33 35 27 5 -3 8 -11 8 -19z m-87 -42 c-5
-15 -3 -16 8 -5 7 6 20 12 29 12 10 0 8 -6 -10 -19 -13 -11 -27 -18 -31 -15
-4 2 -12 -3 -19 -11 -16 -19 -30 -19 -30 0 0 9 8 19 18 22 9 4 21 12 25 20 11
19 17 16 10 -4z"/>
<path d="M4820 3234 c0 -16 7 -49 15 -74 l15 -45 -6 50 c-3 28 -7 58 -8 67 -4
31 -16 32 -16 2z"/>
<path d="M117 3014 c-3 -3 -3 -12 -1 -19 3 -7 -1 -28 -8 -46 -8 -19 -15 -68
-15 -109 l-2 -75 14 90 c8 50 17 107 21 128 6 36 4 44 -9 31z"/>
<path d="M4873 3005 c-1 -11 3 -33 7 -50 6 -23 8 -25 9 -8 0 12 4 30 7 40 5
14 4 15 -4 4 -8 -11 -11 -9 -15 10 -3 17 -4 18 -4 4z"/>
<path d="M80 2707 l5 -62 3 54 c2 30 0 58 -5 62 -4 4 -6 -20 -3 -54z"/>
<path d="M43 2600 c0 -30 2 -43 4 -27 2 15 2 39 0 55 -2 15 -4 2 -4 -28z"/>
<path d="M4912 2225 c0 -16 2 -22 5 -12 2 9 2 23 0 30 -3 6 -5 -1 -5 -18z"/>
<path d="M64 2135 c13 -61 17 -121 7 -100 -5 11 -10 35 -10 53 -1 17 -5 32
-11 32 -13 0 -12 -1 5 -80 9 -36 17 -81 20 -100 12 -100 150 -486 177 -498 4
-2 8 -9 8 -16 0 -21 84 -180 138 -262 64 -96 90 -132 95 -128 2 3 7 -7 11 -21
4 -14 11 -25 17 -25 6 0 7 5 3 12 -4 7 -3 8 5 4 6 -4 9 -11 6 -16 -7 -11 76
-117 140 -180 44 -43 46 -44 52 -22 5 22 7 22 24 6 31 -28 31 -10 1 23 -21 25
-29 28 -39 18 -8 -9 -8 -16 0 -24 6 -6 8 -13 5 -17 -4 -3 -14 7 -24 23 -10 15
-24 33 -32 40 -8 6 -11 17 -7 23 5 8 15 3 31 -16 16 -20 23 -24 24 -13 0 20
-41 59 -64 59 -13 0 -16 -5 -10 -22 6 -22 6 -22 -12 -3 -13 12 -15 20 -7 22 7
3 9 11 6 20 -3 8 -1 18 6 22 8 5 1 19 -22 42 -18 19 -39 43 -45 54 -10 18 -11
18 -12 3 0 -10 -7 -18 -15 -18 -8 0 -15 7 -15 15 0 8 5 15 10 15 17 0 11 18
-17 59 -28 40 -43 51 -43 30 0 -5 -5 -7 -11 -3 -8 5 -8 9 1 14 10 6 7 16 -10
40 -12 17 -31 48 -42 68 -10 20 -16 27 -13 16 4 -15 0 -24 -11 -28 -17 -6 -34
8 -34 29 0 6 4 3 10 -5 5 -8 12 -11 16 -7 12 12 -18 38 -37 32 -20 -7 -25 5
-9 21 6 6 6 15 0 24 -8 12 -10 12 -10 -5 0 -13 -7 -6 -20 20 -11 22 -20 49
-20 60 0 12 -3 25 -7 29 -5 4 -8 13 -8 19 -1 7 -6 11 -12 10 -11 -2 -25 26
-22 43 4 22 -2 34 -16 34 -8 0 -15 5 -15 11 0 5 5 7 10 4 13 -8 13 9 -2 56
-12 42 -23 49 -32 22 -3 -10 -4 0 -2 22 3 22 0 49 -5 60 -7 16 -9 14 -6 -12 2
-18 0 -30 -5 -27 -10 7 -10 45 1 62 10 16 30 -23 57 -113 10 -33 22 -61 26
-63 5 -2 8 -11 8 -20 1 -23 49 -111 50 -91 0 8 -10 35 -21 60 -24 49 -86 214
-100 269 -6 19 -14 44 -18 55 -5 11 -16 64 -26 118 -9 53 -22 100 -28 104 -7
4 -8 -5 -4 -25 4 -18 10 -46 14 -64 4 -22 3 -29 -5 -24 -7 4 -12 15 -13 24 0
14 -2 13 -9 -3 -8 -19 -9 -19 -9 3 -1 12 3 22 9 22 13 0 0 98 -17 129 l-15 26
6 -30z m41 -222 c2 -21 11 -56 20 -78 l16 -40 -6 35 c-16 90 -14 113 4 46 10
-40 16 -80 12 -95 -7 -24 -7 -24 -20 10 -7 19 -19 49 -27 67 -14 32 -20 111
-8 99 3 -3 7 -23 9 -44z m92 -315 c-3 -7 -5 -2 -5 12 0 14 2 19 5 13 2 -7 2
-19 0 -25z m198 -379 c10 -30 2 -32 -12 -3 -6 13 -7 24 -3 24 5 0 12 -9 15
-21z m29 4 c3 -10 9 -24 12 -30 3 -7 1 -13 -4 -13 -5 0 -12 8 -16 18 -3 9 -9
23 -12 30 -3 6 -1 12 4 12 5 0 12 -8 16 -17z m-9 -53 c3 -5 1 -10 -4 -10 -6 0
-11 5 -11 10 0 6 2 10 4 10 3 0 8 -4 11 -10z m55 -56 c0 -20 -7 -17 -20 6 -9
16 -8 18 5 14 8 -4 15 -12 15 -20z m18 -49 c-3 -3 -9 2 -12 12 -6 14 -5 15 5
6 7 -7 10 -15 7 -18z m77 -74 c-3 -11 0 -21 9 -24 10 -4 12 0 9 14 -8 28 10
23 24 -6 6 -15 7 -25 1 -25 -5 0 -6 -9 -3 -20 4 -11 2 -20 -4 -20 -6 0 -11 6
-11 13 0 8 -9 22 -20 32 -21 19 -27 55 -9 55 6 0 8 -8 4 -19z"/>
<path d="M4852 1900 c0 -14 2 -19 5 -12 2 6 2 18 0 25 -3 6 -5 1 -5 -13z"/>
<path d="M4766 1635 c-4 -11 -11 -29 -16 -41 -10 -25 -2 -74 12 -74 6 0 7 11
4 25 -4 14 -2 35 4 46 6 11 10 30 7 42 -3 21 -4 21 -11 2z"/>
<path d="M4730 1510 c0 -6 -5 -8 -11 -4 -9 5 -10 -1 -5 -20 4 -18 3 -25 -4
-21 -13 8 -13 -5 0 -25 9 -13 10 -13 10 0 0 8 7 27 14 42 9 16 11 30 5 33 -5
4 -9 1 -9 -5z"/>
<path d="M311 1438 c-1 -9 -7 -18 -13 -21 -10 -4 -10 -7 0 -18 10 -11 12 -10
12 5 0 9 5 14 10 11 6 -4 8 -10 5 -15 -3 -4 2 -13 9 -20 8 -6 18 -25 21 -41 4
-17 13 -29 22 -29 15 0 15 2 1 18 -9 9 -19 28 -23 42 -4 14 -13 32 -20 40 -7
8 -15 22 -18 30 -4 12 -6 12 -6 -2z"/>
<path d="M4541 1192 c-13 -25 -14 -32 -2 -32 9 0 23 41 16 48 -2 2 -8 -5 -14
-16z"/>
<path d="M640 930 c0 -5 5 -10 11 -10 5 0 7 5 4 10 -3 6 -8 10 -11 10 -2 0 -4
-4 -4 -10z"/>
<path d="M784 766 c-12 -13 -7 -36 8 -36 6 0 8 7 4 15 -3 8 -1 15 4 15 6 0 10
-6 10 -14 0 -7 7 -19 15 -26 8 -7 15 -16 15 -21 0 -5 -7 -9 -15 -9 -8 0 -15 7
-15 16 0 8 -4 13 -10 9 -5 -3 -19 4 -30 15 -11 11 -18 25 -15 30 7 11 -18 14
-28 4 -9 -9 157 -165 226 -213 12 -8 24 -17 27 -20 21 -24 165 -123 260 -179
134 -79 422 -208 440 -197 5 3 11 1 15 -4 19 -32 399 -120 525 -122 115 -2
166 1 152 10 -20 12 45 23 166 26 58 2 102 0 102 -6 0 -5 10 -9 22 -9 12 0 19
-2 16 -5 -2 -3 -40 0 -84 5 -84 11 -202 2 -194 -15 6 -13 301 -8 314 5 6 6 28
10 50 9 l41 -1 -39 -9 c-65 -15 -56 -21 19 -14 108 11 339 60 450 95 143 45
245 83 245 92 0 5 8 8 18 8 9 1 37 12 62 25 42 23 43 24 17 25 -16 0 -36 -7
-44 -16 -9 -9 -25 -13 -37 -10 -14 4 -26 -1 -38 -17 -10 -12 -18 -16 -18 -9 0
21 -20 13 -20 -8 0 -11 -7 -20 -16 -20 -8 0 -12 5 -9 10 4 6 -7 10 -25 10 -17
0 -29 -4 -26 -9 7 -10 -52 -26 -61 -17 -4 3 1 6 9 6 9 0 22 7 29 17 13 15 12
15 -11 3 -49 -25 -53 -32 -29 -46 21 -11 20 -12 -15 -16 -37 -4 -56 5 -36 17
22 14 8 22 -22 15 -98 -25 -154 -43 -166 -53 -7 -6 -34 -11 -60 -13 -26 -1
-112 -10 -192 -19 -116 -14 -187 -16 -355 -11 -115 3 -237 8 -270 11 -46 3
-52 2 -27 -4 18 -5 81 -12 139 -16 65 -4 100 -10 92 -16 -8 -4 -40 -5 -71 -2
-60 6 -75 -1 -35 -17 15 -6 1 -7 -43 -3 -71 6 -92 13 -42 13 52 0 37 17 -19
22 -36 4 -57 12 -68 26 -11 14 -32 22 -66 26 -46 4 -77 12 -220 52 -27 8 -66
13 -85 11 -33 -3 -33 -4 7 -5 23 -1 45 -6 48 -12 3 -5 1 -10 -4 -10 -6 0 -11
-4 -11 -8 0 -9 27 -18 119 -42 23 -6 41 -13 39 -16 -7 -6 -147 35 -189 57 -22
11 -44 17 -49 14 -5 -3 -11 -1 -15 5 -3 5 -19 10 -34 10 -15 0 -31 4 -36 9 -6
5 -19 11 -30 14 -15 4 -13 5 8 6 15 0 27 5 27 10 0 5 8 12 18 14 9 2 6 3 -8 1
-14 -1 -37 -6 -53 -10 -16 -4 -33 -2 -42 6 -13 11 -13 15 5 30 20 17 19 18
-27 38 -44 19 -50 19 -72 5 -17 -11 -26 -12 -34 -4 -6 6 -17 11 -25 11 -8 0
-27 9 -43 21 -29 21 -31 39 -3 39 8 0 12 -4 9 -10 -3 -5 3 -10 14 -10 12 0 21
3 21 8 0 11 -82 46 -112 46 -29 1 -65 26 -37 26 8 0 20 -5 27 -12 6 -6 14 -9
18 -5 3 3 -18 20 -47 37 -30 17 -72 44 -95 61 -25 19 -46 27 -57 23 -9 -3 -14
-10 -11 -15 3 -5 0 -9 -5 -9 -6 0 -11 7 -11 15 0 8 7 15 16 15 8 0 12 5 9 10
-3 6 -15 10 -25 10 -10 0 -20 6 -23 13 -2 6 -8 9 -12 5 -5 -5 -1 -16 8 -26 27
-29 9 -32 -23 -4 -31 28 -31 42 2 42 20 0 19 1 -5 24 -14 13 -37 32 -49 40
-13 9 -48 41 -78 70 -41 40 -58 51 -66 42z m95 -83 c10 -10 32 -31 50 -46 35
-32 40 -47 14 -42 -10 2 -21 4 -24 4 -3 1 -11 13 -17 27 -7 14 -16 23 -21 20
-5 -3 -8 2 -7 12 1 12 -5 16 -22 15 -19 -3 -21 -1 -10 12 16 18 15 18 37 -2z
m259 -205 c26 -13 28 -24 6 -32 -20 -8 -34 1 -34 20 0 10 -6 13 -17 10 -10 -3
-24 -1 -32 3 -12 8 -13 12 -1 26 12 14 15 14 34 0 12 -8 31 -20 44 -27z m57
-47 c-8 -25 36 -54 70 -45 15 4 25 2 25 -5 0 -17 -53 -18 -74 0 -6 5 -22 18
-36 29 -23 18 -23 19 -5 20 17 0 17 2 5 10 -13 8 -12 10 3 10 13 0 17 -5 12
-19z m281 -141 l28 -11 -29 -15 c-29 -15 -50 -10 -25 7 13 8 13 10 0 19 -20
13 -8 13 26 0z m1894 -110 c-8 -5 -19 -10 -25 -10 -5 0 -3 5 5 10 8 5 20 10
25 10 6 0 3 -5 -5 -10z m-166 -24 c-3 -8 -20 -16 -37 -19 -18 -3 -44 -9 -59
-12 -16 -4 -28 -3 -28 2 0 5 28 16 63 25 34 8 63 16 64 17 1 0 0 -5 -3 -13z
m-1328 -11 c61 -16 71 -21 61 -32 -4 -3 -35 2 -69 12 -108 32 -101 49 8 20z
m1299 -25 c-3 -5 -15 -10 -26 -10 -11 0 -17 5 -14 10 3 6 15 10 26 10 11 0 17
-4 14 -10z m-1180 -10 c17 -7 14 -9 -13 -9 -20 -1 -31 3 -27 9 7 12 13 12 40
0z m1110 -1 c15 0 12 -3 -10 -11 -16 -5 -82 -11 -145 -13 l-115 -3 80 15 c54
9 85 11 96 4 9 -5 27 -7 40 -4 22 6 22 7 3 15 -15 7 -14 7 6 3 14 -2 34 -5 45
-6z m-1025 -15 c0 -2 -13 -4 -30 -4 -16 0 -30 4 -30 8 0 5 14 7 30 4 17 -2 30
-6 30 -8z m25 -29 c32 -11 35 -14 15 -14 -14 0 -47 6 -75 14 -48 13 -48 14
-15 14 19 0 53 -6 75 -14z m721 6 c-3 -5 -26 -6 -52 -3 -30 3 -49 1 -53 -7 -5
-8 -18 -10 -37 -4 l-29 7 35 7 c54 10 142 10 136 0z m141 -2 c-20 -12 -136
-26 -126 -15 3 3 33 10 65 15 81 12 81 12 61 0z"/>
<path d="M1070 490 c0 -5 5 -10 11 -10 5 0 7 5 4 10 -3 6 -8 10 -11 10 -2 0
-4 -4 -4 -10z"/>
<path d="M3778 439 c-10 -5 -18 -15 -18 -21 0 -6 9 -3 21 8 17 15 22 16 29 4
5 -8 12 -11 17 -7 4 5 1 12 -7 17 -18 12 -21 12 -42 -1z"/>
<path d="M3638 353 c7 -3 16 -2 19 1 4 3 -2 6 -13 5 -11 0 -14 -3 -6 -6z"/>
<path d="M1357 344 c-12 -12 4 -24 31 -24 26 1 26 1 8 15 -22 17 -30 18 -39 9z"/>
<path d="M3706 341 c-3 -5 -26 -6 -50 -4 -33 4 -57 -1 -98 -19 -29 -14 -72
-33 -95 -43 -24 -10 -43 -22 -43 -27 0 -12 17 -10 32 5 17 15 52 22 43 8 -3
-6 1 -11 9 -11 9 0 16 4 16 9 0 5 9 13 20 16 11 4 18 10 15 15 -3 4 2 10 10
14 9 3 15 0 15 -8 0 -30 43 -25 102 11 32 20 58 37 58 39 0 8 -29 4 -34 -5z
m-53 -22 c20 -1 20 -2 -3 -9 -39 -13 -50 -11 -50 6 0 11 5 14 16 10 9 -3 25
-6 37 -7z"/>
<path d="M1530 250 c-8 -5 -11 -12 -7 -17 5 -4 11 -2 15 4 4 6 16 13 27 16
l20 5 -20 1 c-11 0 -27 -3 -35 -9z"/>
<path d="M1623 213 c-31 -6 -29 -23 1 -23 13 0 30 -2 38 -3 7 -2 10 -2 6 0
-19 11 -5 23 20 18 22 -4 24 -4 7 4 -21 10 -36 11 -72 4z"/>
<path d="M2330 8 c0 -5 75 -8 167 -8 91 0 163 3 159 7 -10 10 -326 10 -326 1z"/>
</g>
</svg>
